<svg xmlns="http://www.w3.org/2000/svg" width="25" height="25" viewBox="0 0 25 25">
  <g id="Group_4" data-name="Group 4" transform="translate(-209 -1140)">
    <g id="Icon_ionic-ios-add-circle-outline" data-name="Icon ionic-ios-add-circle-outline" transform="translate(208.031 1139.031)">
      <path id="Path_1" data-name="Path 1" d="M22.293,15.924H17.838V11.469a.957.957,0,1,0-1.914,0v4.455H11.469a.916.916,0,0,0-.957.957.926.926,0,0,0,.957.957h4.455v4.455a.927.927,0,0,0,.957.957.952.952,0,0,0,.957-.957V17.838h4.455a.957.957,0,0,0,0-1.914Z" transform="translate(-3.412 -3.412)" fill="#fff"/>
      <path id="Path_2" data-name="Path 2" d="M13.469,4.734A8.732,8.732,0,1,1,7.291,7.291a8.677,8.677,0,0,1,6.178-2.557m0-1.359A10.094,10.094,0,1,0,23.563,13.469,10.093,10.093,0,0,0,13.469,3.375Z" transform="translate(0 0)" fill="#fff"/>
    </g>
    <rect id="Rectangle_12" data-name="Rectangle 12" width="25" height="25" transform="translate(209 1140)" fill="none"/>
  </g>
</svg>
