<svg xmlns="http://www.w3.org/2000/svg" width="25" height="25" viewBox="0 0 25 25">
  <g id="Group_3" data-name="Group 3" transform="translate(-173 -1201)">
    <g id="Icon_feather-edit" data-name="Icon feather-edit" transform="translate(173.706 1201.888)">
      <path id="Path_3" data-name="Path 3" d="M17.194,22.964H4.27a2.773,2.773,0,0,1-2.77-2.77V7.27A2.773,2.773,0,0,1,4.27,4.5h6.462a.923.923,0,1,1,0,1.846H4.27a.924.924,0,0,0-.923.923V20.194a.924.924,0,0,0,.923.923H17.194a.924.924,0,0,0,.923-.923V13.732a.923.923,0,0,1,1.846,0v6.462A2.773,2.773,0,0,1,17.194,22.964Z" transform="translate(0 -1.058)" fill="#fff"/>
      <path id="Path_4" data-name="Path 4" d="M23.518,1.318a3.126,3.126,0,0,1,2.21,5.336l-9.513,9.513a1,1,0,0,1-.465.263l-4.005,1a1,1,0,0,1-1.214-1.214l1-4.005a1,1,0,0,1,.263-.465l9.513-9.513A3.105,3.105,0,0,1,23.518,1.318ZM14.995,14.554l9.317-9.317A1.123,1.123,0,0,0,22.724,3.65l-9.317,9.317-.529,2.117Z" transform="translate(-4.556)" fill="#fff"/>
    </g>
    <rect id="Rectangle_13" data-name="Rectangle 13" width="25" height="25" transform="translate(173 1201)" fill="none"/>
  </g>
</svg>
