<svg xmlns="http://www.w3.org/2000/svg" xmlns:xlink="http://www.w3.org/1999/xlink" width="203" height="250.999" viewBox="0 0 203 250.999">
  <defs>
    <clipPath id="clip-path">
      <rect id="Rectangle_4598" data-name="Rectangle 4598" width="203" height="250.999" transform="translate(461.003 40.159)" fill="none"/>
    </clipPath>
  </defs>
  <g id="Group_4877" data-name="Group 4877" transform="translate(-461.004 -40.159)">
    <g id="Group_4876" data-name="Group 4876" clip-path="url(#clip-path)">
      <path id="Path_15125" data-name="Path 15125" d="M575.487,215.288c7.846,7.476,21.552,10.845,21.552,10.845a114.549,114.549,0,0,1-4.061,32.3c1.246-.462,2.538-.923,3.784-1.385a79.93,79.93,0,0,0,28.151-18.136A84.562,84.562,0,0,0,643.6,210.3q6.853-16.752,6.876-37.658c0-14.307-2.215-27.136-6.553-38.489a81.635,81.635,0,0,0-18.275-28.751,80.377,80.377,0,0,0-27.921-18,97.169,97.169,0,0,0-35.166-6.276,95.941,95.941,0,0,0-35.258,6.415,82.216,82.216,0,0,0-28.336,18.413,84.843,84.843,0,0,0-18.691,28.89q-6.714,16.892-6.691,37.8c0,14.306,2.169,27.136,6.553,38.35a80.451,80.451,0,0,0,18.275,28.474,77.605,77.605,0,0,0,25.521,16.753,46.894,46.894,0,0,1-7.153,28.613c9.414-7.061,13.614-16.522,15.045-25.8a54.745,54.745,0,0,0,.645-9.415,76.956,76.956,0,0,0-2.861-18.967c18.46-4.107,29.49-41.4,63.225-37.381,0,0-23.167-10.107-46.011,13.568-8.584,8.86-21.413,20.167-32.674,14.306A24.655,24.655,0,0,1,502.478,200.2a20.061,20.061,0,0,1,7.707-15.829c.692-7.8,8.538-13.937,18.091-13.937.508,0,.969.046,1.477.092a17.06,17.06,0,0,1,13.383-5.953,12.63,12.63,0,0,1,1.892.138c7.892-10.845,1.754-9.322-2.538-21.367-2.63-7.384.508-7.2,3.461-5.907a22.338,22.338,0,0,1-.6-4.985c0-8.63,5.123-15.921,12.184-18.413a3.5,3.5,0,0,1,1.661-2.123c-2.953-6.784-8.676-.185-12.829,1.892-11.18,6.167-16.291-.969-16.291-.969,12.645,1.2,15.46-31.1,31.612-18.368,4.985,3.969,4.431,12.553,3.738,16.8a4.424,4.424,0,0,1,3,2.769c7.061,2.492,12.138,9.783,12.138,18.413a19.942,19.942,0,0,1-.6,4.985c2.953-1.293,6.091-1.477,3.461,5.907-4.292,12.045-10.476,10.522-2.446,21.413a21.13,21.13,0,0,1,2.492-.184,17.06,17.06,0,0,1,13.383,5.953c.508-.046.97-.092,1.477-.092,9.6,0,17.4,6.137,18.091,13.937a20.06,20.06,0,0,1,7.707,15.829,23.472,23.472,0,0,1-2.031,9.368c-9,20.214-46.611,5.723-46.611,5.723" fill="#0f1f41"/>
    </g>
  </g>
</svg>
